<svg width="1440" height="617" viewBox="0 0 1440 617" fill="none" xmlns="http://www.w3.org/2000/svg">
<path fill-rule="evenodd" clip-rule="evenodd" d="M1329.88 0C1318.1 47.2404 1277.75 106.624 1217.08 166.652C1267.59 161.389 1305.65 170.785 1323.19 196.786C1339.67 221.223 1335.74 256.998 1315.4 298.49C1360.32 279.257 1402.71 266.144 1440 259.735V0H1329.88ZM1440 551.631C1415.45 573.822 1388.28 595.805 1358.92 617H1440V551.631ZM659.892 617H0V0H617.624C579.333 43.9179 563.123 85.3416 576.782 116.765C595.439 159.669 665.748 174.547 760.187 162.877C677.149 249.649 638.278 333.076 668.664 378.108C686.197 404.106 724.242 413.499 774.737 408.234C694.21 487.926 649.515 566.484 659.892 617Z" fill="#91A7D2"/>
</svg>
