<svg id="Goldsmiths" xmlns="http://www.w3.org/2000/svg" width="16" height="16" viewBox="0 0 16 16">
  <defs>
    <style>
      .cls-1 {
        fill: none;
      }
    </style>
  </defs>
  <title>safari-pinned-tab--final</title>
  <path d="M8.56,0.25L8.13,0.3a7.47,7.47,0,0,0-3.8,1.28A7.3,7.3,0,0,0,2.27,3.77a8.62,8.62,0,0,0-1.07,3,14.16,14.16,0,0,0,0,2.33c0,0.19.07,0.45,0.09,0.57a7.62,7.62,0,0,0,.92,2.46A7.33,7.33,0,0,0,7,15.59a10.88,10.88,0,0,0,4.17-.09,11.62,11.62,0,0,0,3.22-1.39l0.45-.3,0-3.11,0-3.11H8.61l0,1.1v1.1h1.86l1.87,0v1.33c0,0.73,0,1.35,0,1.38a5.76,5.76,0,0,1-1.28.61l-0.49.17a2.39,2.39,0,0,1-.48.1,1.93,1.93,0,0,0-.38.07,10.31,10.31,0,0,1-1.58,0,5.7,5.7,0,0,1-.8-0.2A5.08,5.08,0,0,1,3.84,8,5.09,5.09,0,0,1,7.6,2.89a7.75,7.75,0,0,1,2.28-.11A6.09,6.09,0,0,1,12.7,4a0.45,0.45,0,0,0,.23.12l0.77-1,0.75-1L14.3,2A8,8,0,0,0,10.84.42l-0.45-.08A11.27,11.27,0,0,0,8.87.25H8.56Z"/>
  <rect class="cls-1" width="16" height="16"/>
</svg>
