<svg width="360" height="480" viewBox="0 0 360 480" fill="none" xmlns="http://www.w3.org/2000/svg">
<path fill-rule="evenodd" clip-rule="evenodd" d="M0 0H360V276.124C347.416 254.391 327.719 230.192 302.909 207.444C246.973 156.144 186.155 131.64 167.082 152.768C159.425 161.239 159.703 175.833 166.354 193.52C110.477 142.463 49.8833 118.097 30.8634 139.18C19.9255 151.3 25.1484 175.818 42.1793 204.21C26.7158 195.74 12.275 190.102 0 187.764V0ZM0 289.181V480H360V344.661C334.602 352.624 282.673 328.452 234.291 284.223C240.98 301.933 241.258 316.527 233.601 324.998C221.531 338.397 192.629 333.409 158.814 314.912L158.822 314.942C175.853 343.334 181.075 367.853 170.137 379.972C151.087 401.063 90.2763 376.59 34.2724 325.274C21.3707 313.452 9.85332 301.238 0 289.181Z" fill="#91A7D2"/>
</svg>
